<mxfile host="app.diagrams.net" modified="2023-01-04T06:13:14.897Z" agent="5.0 (Macintosh; Intel Mac OS X 10_15_7) AppleWebKit/605.1.15 (KHTML, like Gecko) Version/16.2 Safari/605.1.15" version="20.7.4" etag="EbK09DyFFbndgrYbI0ZB" type="github">
  <diagram id="N96shTzlHW_SZ1nDQdUV" name="第 1 页">
    <mxGraphModel dx="478" dy="285" grid="1" gridSize="10" guides="1" tooltips="1" connect="1" arrows="1" fold="1" page="1" pageScale="1" pageWidth="827" pageHeight="1169" math="0" shadow="0">
      <root>
        <mxCell id="0" />
        <mxCell id="1" parent="0" />
        <mxCell id="YV2cUdaabwmBFP0b_Ua7-2" value="" style="ellipse;whiteSpace=wrap;html=1;aspect=fixed;fillColor=#ff2600;" vertex="1" parent="1">
          <mxGeometry x="310" y="408" width="10" height="10" as="geometry" />
        </mxCell>
        <mxCell id="YV2cUdaabwmBFP0b_Ua7-4" value="" style="ellipse;whiteSpace=wrap;html=1;aspect=fixed;fillColor=#ff2600;" vertex="1" parent="1">
          <mxGeometry x="404" y="378" width="10" height="10" as="geometry" />
        </mxCell>
        <mxCell id="YV2cUdaabwmBFP0b_Ua7-6" value="" style="ellipse;whiteSpace=wrap;html=1;aspect=fixed;fillColor=#ff2600;" vertex="1" parent="1">
          <mxGeometry x="390" y="458" width="10" height="10" as="geometry" />
        </mxCell>
        <mxCell id="YV2cUdaabwmBFP0b_Ua7-8" value="" style="ellipse;whiteSpace=wrap;html=1;aspect=fixed;fillColor=#ff2600;" vertex="1" parent="1">
          <mxGeometry x="181" y="360" width="10" height="10" as="geometry" />
        </mxCell>
        <mxCell id="YV2cUdaabwmBFP0b_Ua7-9" value="" style="ellipse;whiteSpace=wrap;html=1;aspect=fixed;fillColor=#0061ff;" vertex="1" parent="1">
          <mxGeometry x="181" y="390" width="10" height="10" as="geometry" />
        </mxCell>
        <mxCell id="YV2cUdaabwmBFP0b_Ua7-12" value="" style="ellipse;whiteSpace=wrap;html=1;aspect=fixed;fillColor=#0061ff;" vertex="1" parent="1">
          <mxGeometry x="370" y="340" width="10" height="10" as="geometry" />
        </mxCell>
        <mxCell id="YV2cUdaabwmBFP0b_Ua7-14" value="" style="ellipse;whiteSpace=wrap;html=1;aspect=fixed;fillColor=#0061ff;" vertex="1" parent="1">
          <mxGeometry x="390" y="408" width="10" height="10" as="geometry" />
        </mxCell>
        <mxCell id="YV2cUdaabwmBFP0b_Ua7-16" value="" style="ellipse;whiteSpace=wrap;html=1;aspect=fixed;fillColor=#00FF80;" vertex="1" parent="1">
          <mxGeometry x="181" y="420" width="10" height="10" as="geometry" />
        </mxCell>
        <mxCell id="YV2cUdaabwmBFP0b_Ua7-17" value="" style="ellipse;whiteSpace=wrap;html=1;aspect=fixed;fillColor=#00FF80;" vertex="1" parent="1">
          <mxGeometry x="300" y="368" width="10" height="10" as="geometry" />
        </mxCell>
        <mxCell id="YV2cUdaabwmBFP0b_Ua7-20" value="" style="endArrow=none;html=1;rounded=0;exitX=1;exitY=1;exitDx=0;exitDy=0;entryX=0;entryY=0;entryDx=0;entryDy=0;" edge="1" parent="1" source="YV2cUdaabwmBFP0b_Ua7-17" target="YV2cUdaabwmBFP0b_Ua7-14">
          <mxGeometry width="50" height="50" relative="1" as="geometry">
            <mxPoint x="350" y="458" as="sourcePoint" />
            <mxPoint x="400" y="408" as="targetPoint" />
          </mxGeometry>
        </mxCell>
        <mxCell id="YV2cUdaabwmBFP0b_Ua7-21" value="" style="endArrow=none;html=1;rounded=0;exitX=0.5;exitY=0;exitDx=0;exitDy=0;entryX=0.5;entryY=1;entryDx=0;entryDy=0;" edge="1" parent="1" source="YV2cUdaabwmBFP0b_Ua7-6" target="YV2cUdaabwmBFP0b_Ua7-14">
          <mxGeometry width="50" height="50" relative="1" as="geometry">
            <mxPoint x="350" y="468" as="sourcePoint" />
            <mxPoint x="400" y="418" as="targetPoint" />
          </mxGeometry>
        </mxCell>
        <mxCell id="YV2cUdaabwmBFP0b_Ua7-24" value="" style="ellipse;whiteSpace=wrap;html=1;aspect=fixed;fillColor=#00FF80;" vertex="1" parent="1">
          <mxGeometry x="330" y="438" width="10" height="10" as="geometry" />
        </mxCell>
        <mxCell id="YV2cUdaabwmBFP0b_Ua7-26" value="" style="endArrow=none;html=1;fontFamily=Helvetica;fontSize=11;fontColor=default;align=center;strokeColor=default;" edge="1" parent="1" source="YV2cUdaabwmBFP0b_Ua7-24" target="YV2cUdaabwmBFP0b_Ua7-14">
          <mxGeometry width="50" height="50" relative="1" as="geometry">
            <mxPoint x="340" y="468" as="sourcePoint" />
            <mxPoint x="390" y="418" as="targetPoint" />
          </mxGeometry>
        </mxCell>
        <mxCell id="YV2cUdaabwmBFP0b_Ua7-27" value="" style="endArrow=none;html=1;rounded=0;entryX=0;entryY=0.5;entryDx=0;entryDy=0;exitX=1;exitY=0.5;exitDx=0;exitDy=0;" edge="1" parent="1" source="YV2cUdaabwmBFP0b_Ua7-24" target="YV2cUdaabwmBFP0b_Ua7-6">
          <mxGeometry width="50" height="50" relative="1" as="geometry">
            <mxPoint x="270" y="488" as="sourcePoint" />
            <mxPoint x="320" y="438" as="targetPoint" />
          </mxGeometry>
        </mxCell>
        <mxCell id="YV2cUdaabwmBFP0b_Ua7-28" value="" style="endArrow=none;html=1;rounded=0;entryX=0;entryY=0.5;entryDx=0;entryDy=0;exitX=1;exitY=0.5;exitDx=0;exitDy=0;" edge="1" parent="1" source="YV2cUdaabwmBFP0b_Ua7-2" target="YV2cUdaabwmBFP0b_Ua7-14">
          <mxGeometry width="50" height="50" relative="1" as="geometry">
            <mxPoint x="270" y="468" as="sourcePoint" />
            <mxPoint x="320" y="418" as="targetPoint" />
          </mxGeometry>
        </mxCell>
        <mxCell id="YV2cUdaabwmBFP0b_Ua7-29" value="" style="endArrow=none;html=1;rounded=0;exitX=1;exitY=0;exitDx=0;exitDy=0;entryX=0;entryY=1;entryDx=0;entryDy=0;" edge="1" parent="1" source="YV2cUdaabwmBFP0b_Ua7-14" target="YV2cUdaabwmBFP0b_Ua7-4">
          <mxGeometry width="50" height="50" relative="1" as="geometry">
            <mxPoint x="440" y="410" as="sourcePoint" />
            <mxPoint x="490" y="360" as="targetPoint" />
          </mxGeometry>
        </mxCell>
        <mxCell id="YV2cUdaabwmBFP0b_Ua7-30" value="" style="endArrow=none;html=1;rounded=0;exitX=1;exitY=0.5;exitDx=0;exitDy=0;entryX=0;entryY=0.5;entryDx=0;entryDy=0;" edge="1" parent="1" source="YV2cUdaabwmBFP0b_Ua7-17" target="YV2cUdaabwmBFP0b_Ua7-4">
          <mxGeometry width="50" height="50" relative="1" as="geometry">
            <mxPoint x="310" y="400" as="sourcePoint" />
            <mxPoint x="360" y="350" as="targetPoint" />
          </mxGeometry>
        </mxCell>
        <mxCell id="YV2cUdaabwmBFP0b_Ua7-31" value="" style="endArrow=none;html=1;rounded=0;entryX=0.5;entryY=1;entryDx=0;entryDy=0;exitX=0.5;exitY=0;exitDx=0;exitDy=0;" edge="1" parent="1" source="YV2cUdaabwmBFP0b_Ua7-2" target="YV2cUdaabwmBFP0b_Ua7-17">
          <mxGeometry width="50" height="50" relative="1" as="geometry">
            <mxPoint x="240" y="440" as="sourcePoint" />
            <mxPoint x="290" y="390" as="targetPoint" />
          </mxGeometry>
        </mxCell>
        <mxCell id="YV2cUdaabwmBFP0b_Ua7-32" value="" style="endArrow=none;html=1;rounded=0;entryX=1;entryY=0.5;entryDx=0;entryDy=0;exitX=0;exitY=1;exitDx=0;exitDy=0;" edge="1" parent="1" source="YV2cUdaabwmBFP0b_Ua7-12" target="YV2cUdaabwmBFP0b_Ua7-17">
          <mxGeometry width="50" height="50" relative="1" as="geometry">
            <mxPoint x="300" y="420" as="sourcePoint" />
            <mxPoint x="350" y="370" as="targetPoint" />
          </mxGeometry>
        </mxCell>
        <mxCell id="YV2cUdaabwmBFP0b_Ua7-33" value="" style="endArrow=none;html=1;rounded=0;exitX=1;exitY=1;exitDx=0;exitDy=0;entryX=0;entryY=0;entryDx=0;entryDy=0;" edge="1" parent="1" source="YV2cUdaabwmBFP0b_Ua7-12" target="YV2cUdaabwmBFP0b_Ua7-4">
          <mxGeometry width="50" height="50" relative="1" as="geometry">
            <mxPoint x="400" y="370" as="sourcePoint" />
            <mxPoint x="450" y="320" as="targetPoint" />
          </mxGeometry>
        </mxCell>
        <mxCell id="YV2cUdaabwmBFP0b_Ua7-34" value="" style="endArrow=none;html=1;rounded=0;entryX=1;entryY=0;entryDx=0;entryDy=0;exitX=0;exitY=1;exitDx=0;exitDy=0;" edge="1" parent="1" source="YV2cUdaabwmBFP0b_Ua7-12" target="YV2cUdaabwmBFP0b_Ua7-2">
          <mxGeometry width="50" height="50" relative="1" as="geometry">
            <mxPoint x="240" y="480" as="sourcePoint" />
            <mxPoint x="290" y="430" as="targetPoint" />
          </mxGeometry>
        </mxCell>
        <mxCell id="YV2cUdaabwmBFP0b_Ua7-35" value="" style="endArrow=none;html=1;rounded=0;entryX=1;entryY=1;entryDx=0;entryDy=0;exitX=0;exitY=0;exitDx=0;exitDy=0;" edge="1" parent="1" source="YV2cUdaabwmBFP0b_Ua7-24" target="YV2cUdaabwmBFP0b_Ua7-2">
          <mxGeometry width="50" height="50" relative="1" as="geometry">
            <mxPoint x="300" y="460" as="sourcePoint" />
            <mxPoint x="350" y="410" as="targetPoint" />
          </mxGeometry>
        </mxCell>
        <mxCell id="YV2cUdaabwmBFP0b_Ua7-36" value="" style="endArrow=none;html=1;rounded=0;entryX=0.5;entryY=1;entryDx=0;entryDy=0;" edge="1" parent="1" target="YV2cUdaabwmBFP0b_Ua7-12">
          <mxGeometry width="50" height="50" relative="1" as="geometry">
            <mxPoint x="340" y="440" as="sourcePoint" />
            <mxPoint x="460" y="300" as="targetPoint" />
          </mxGeometry>
        </mxCell>
        <mxCell id="YV2cUdaabwmBFP0b_Ua7-37" value="" style="endArrow=none;html=1;rounded=0;entryX=0.5;entryY=1;entryDx=0;entryDy=0;exitX=0;exitY=0;exitDx=0;exitDy=0;" edge="1" parent="1" source="YV2cUdaabwmBFP0b_Ua7-6" target="YV2cUdaabwmBFP0b_Ua7-12">
          <mxGeometry width="50" height="50" relative="1" as="geometry">
            <mxPoint x="410" y="380" as="sourcePoint" />
            <mxPoint x="460" y="330" as="targetPoint" />
          </mxGeometry>
        </mxCell>
        <mxCell id="YV2cUdaabwmBFP0b_Ua7-38" value="&lt;font style=&quot;font-size: 10px;&quot;&gt;peptide&lt;/font&gt;" style="text;html=1;strokeColor=none;fillColor=none;align=center;verticalAlign=middle;whiteSpace=wrap;rounded=0;" vertex="1" parent="1">
          <mxGeometry x="191" y="346" width="60" height="30" as="geometry" />
        </mxCell>
        <mxCell id="YV2cUdaabwmBFP0b_Ua7-39" value="&lt;font style=&quot;font-size: 10px;&quot;&gt;MHC&lt;br&gt;&lt;/font&gt;" style="text;html=1;strokeColor=none;fillColor=none;align=center;verticalAlign=middle;whiteSpace=wrap;rounded=0;" vertex="1" parent="1">
          <mxGeometry x="191" y="378" width="60" height="30" as="geometry" />
        </mxCell>
        <mxCell id="YV2cUdaabwmBFP0b_Ua7-40" value="&lt;font style=&quot;font-size: 10px;&quot;&gt;TCR&lt;br&gt;&lt;/font&gt;" style="text;html=1;strokeColor=none;fillColor=none;align=center;verticalAlign=middle;whiteSpace=wrap;rounded=0;" vertex="1" parent="1">
          <mxGeometry x="191" y="408" width="60" height="30" as="geometry" />
        </mxCell>
      </root>
    </mxGraphModel>
  </diagram>
</mxfile>
